<svg width="142" height="64" viewBox="0 0 142 64" fill="none" xmlns="http://www.w3.org/2000/svg">
<g filter="url(#filter0_d_1589_14311)">
<path d="M104.869 8.96852V13.9406C104.656 14.0459 104.445 14.1539 104.24 14.2706C102.878 13.8098 101.407 13.5794 99.8484 13.5794C99.3535 13.5794 98.8415 13.6021 98.3608 13.6476C98.1901 13.6619 98.0194 13.6789 97.8488 13.6988V10.7178L77.9263 12.5298V15.5705C76.1883 15.8407 74.604 16.3669 73.196 17.1463C71.8192 16.677 70.3401 16.4409 68.7785 16.4409C68.2808 16.4409 67.7659 16.4665 67.2482 16.5148C65.1092 16.7168 63.1209 17.3198 61.3915 18.2784C60.0518 17.7749 58.5812 17.5161 57.0452 17.5161C56.6299 17.5161 56.2061 17.536 55.7794 17.573H55.7339C54.7753 17.6725 53.8623 17.8517 53.0089 18.1106L45.4996 18.7961C45.0132 18.7392 44.5211 18.7107 44.0262 18.7107C43.608 18.7107 43.1814 18.7307 42.7291 18.7733C41.7336 18.8729 40.7807 19.0635 39.8875 19.3394L33.6809 20.2951C32.5773 20.1301 31.1039 20.0192 29.9547 20.0192C29.528 20.0192 29.1611 20.0334 28.8539 20.0619C27.1216 20.2098 25.4861 20.6251 23.9814 21.302L23.5063 21.2508C22.2861 21.1086 21.4071 21.0346 20.7444 21.0119C20.349 20.992 19.9593 20.9806 19.5895 20.9806C19.0548 20.9806 18.5456 21.0034 18.0735 21.046C12.8511 21.5267 9.8843 24.0725 8.28856 26.1603C6.37425 28.7317 5.44127 31.9602 5.44127 36.0277C5.44127 36.6279 5.46119 37.2082 5.50385 37.7657L5.4043 37.7771V58.1291L116.855 46.9106L127.969 45.8752L128.839 45.696L135.603 45.1299V5.68887L104.869 8.96852Z" fill="#0A0707"/>
<path d="M108.359 12.1031V16.3641C106.934 16.7196 105.677 17.3454 104.604 18.2329C102.923 17.2885 100.921 16.9131 98.6481 17.1235C97.772 17.1975 96.8903 17.371 96.0256 17.6441L94.3587 17.7948V14.5379L81.4165 15.7155V18.8615C80.7338 18.8302 80.0369 18.8473 79.3486 18.9099C77.0304 19.1175 75.0819 19.8542 73.5459 21.1029C71.8478 20.1557 69.851 19.7746 67.5754 19.9879C64.7736 20.2524 62.8679 21.2992 61.6504 22.3004C60.4615 21.5097 58.6524 20.8242 56.081 21.046C55.2248 21.1314 54.4312 21.2992 53.7116 21.5466L45.4314 22.3033C44.6748 22.1866 43.8954 22.1667 43.0791 22.2435C42.2314 22.3289 41.4293 22.4967 40.6926 22.7442L33.6526 23.8279C32.6314 23.6231 30.3075 23.4297 29.1498 23.5378C27.5 23.6771 25.9783 24.1266 24.6272 24.8775L23.1082 24.7154C22.0558 24.5931 21.2053 24.5134 20.5966 24.4963C19.7688 24.4537 19.0264 24.4622 18.395 24.5191C14.4327 24.8832 12.2396 26.7406 11.0904 28.2425C9.63978 30.1881 8.93435 32.7367 8.93435 36.0249C8.93435 37.8823 9.16191 39.4752 9.62555 40.8491L8.89453 40.923V54.2663L116.531 43.4318L127.454 42.4135L128.341 42.2314L132.113 41.9157V9.5687L108.359 12.1031ZM130.15 40.1294L127.269 40.3626L126.379 40.5447L116.338 41.4805L10.8515 52.0988V42.6951L12.5411 42.5244L11.9068 41.253C11.2241 39.8876 10.8913 38.1781 10.8913 36.0249C10.8913 33.1719 11.4688 31.0101 12.6492 29.4229C13.5537 28.2425 15.3144 26.769 18.5713 26.4704C19.1118 26.4192 19.7546 26.4135 20.5056 26.4533C21.0944 26.4732 21.8908 26.55 22.8864 26.6638L25.0567 26.8942L25.3383 26.7264C26.5045 26.0295 27.8414 25.6142 29.3205 25.4891C30.7029 25.3582 32.9614 25.5203 34.0935 25.9186L40.9884 24.6841L41.2216 24.6329C41.8417 24.4167 42.5329 24.2659 43.2611 24.1948C44.2737 24.1038 45.2067 24.192 46.1198 24.4707L54.0074 23.4894L54.252 23.4354C54.8494 23.2192 55.5292 23.0741 56.2602 23.0002C58.7178 22.7868 60.2254 23.5947 61.0645 24.3171L61.7528 24.9088L62.3957 24.2659C63.7297 22.9347 65.5331 22.1497 67.7546 21.942C69.851 21.7486 71.6515 22.1525 73.0965 23.131L73.7564 23.5776L74.3281 23.0229C75.611 21.7827 77.3575 21.0574 79.5221 20.864C80.1592 20.8042 80.8049 20.7929 81.3994 20.8242L82.1873 20.8839L83.3735 20.7417V17.5075L92.396 16.6855V19.9395L96.3072 19.5897L96.5233 19.547C97.28 19.3024 98.0508 19.1459 98.8188 19.0805C100.938 18.8871 102.733 19.2882 104.155 20.2666L104.821 20.7246L105.398 20.1586C106.482 19.0947 107.864 18.4121 109.505 18.1305L110.319 17.9911V13.9008L130.15 11.7248V40.1351V40.1294Z" fill="white"/>
<path d="M18.3696 42.385C19.3111 42.2969 20.6139 42.0124 22.2779 41.5317L22.184 39.0229L19.4533 39.4638C18.7166 39.5321 18.1563 39.4809 17.7723 39.313C17.3883 39.1452 17.1209 38.8323 16.973 38.3744C16.8222 37.9164 16.7483 37.2423 16.7483 36.3463C16.7483 35.4503 16.8222 34.7875 16.973 34.3011C17.1209 33.8176 17.3854 33.4592 17.7609 33.2288C18.1363 32.9984 18.6882 32.8505 19.4078 32.7822C19.9255 32.7338 20.8528 32.7111 22.184 32.7139L22.2779 30.2108C21.3506 30.1084 20.6139 30.043 20.0649 30.0146C19.5159 29.9861 19.0153 29.9946 18.5602 30.0345C16.7881 30.1994 15.5081 30.7996 14.723 31.835C13.9379 32.8704 13.5454 34.4803 13.5454 36.662C13.5454 38.8437 13.9266 40.3399 14.686 41.2529C15.4455 42.1632 16.6743 42.5415 18.3696 42.385Z" fill="white"/>
<path d="M29.3119 41.3753C31.084 41.2131 32.4294 40.5504 33.3482 39.3898C34.2669 38.2321 34.7249 36.662 34.7249 34.6851C34.7249 32.7082 34.2641 31.2547 33.3482 30.2705C32.4294 29.2892 31.084 28.8796 29.3119 29.0417C27.5398 29.2039 26.1944 29.8638 25.2756 31.0129C24.3569 32.1649 23.8989 33.7209 23.8989 35.6807C23.8989 37.6405 24.3569 39.1424 25.2756 40.1294C26.1944 41.1193 27.5398 41.5345 29.3119 41.3696V41.3753ZM27.6422 32.6798C28.0035 32.1137 28.561 31.7952 29.3119 31.7269C30.0657 31.6586 30.6232 31.8748 30.9816 32.3726C31.3428 32.8732 31.522 33.7436 31.522 34.9809C31.522 36.2183 31.3428 37.1313 30.9816 37.7145C30.6203 38.2976 30.0628 38.6218 29.3119 38.6929C28.5581 38.7612 28.0006 38.5393 27.6422 38.0245C27.281 37.5097 27.1018 36.6307 27.1018 35.3905C27.1018 34.1504 27.281 33.2487 27.6422 32.6826V32.6798Z" fill="white"/>
<path d="M40.1862 31.2889L40.4678 31.1666C41.1277 30.8878 41.7137 30.7228 42.2314 30.6745C42.951 30.609 43.4431 30.7826 43.702 31.1978C43.9608 31.6131 44.0917 32.3641 44.0917 33.445V39.7283L47.2461 39.4382V33.061C47.2461 31.1324 46.9389 29.733 46.3274 28.8626C45.7158 27.995 44.689 27.6252 43.244 27.7589C42.7093 27.8073 42.2115 27.9239 41.7478 28.1088C41.2842 28.2937 40.7551 28.5838 40.1606 28.9849V28.325L37.0317 28.6151V40.3826L40.1862 40.0924V31.2917V31.2889Z" fill="white"/>
<path d="M53.1994 30.0885L53.481 29.969C54.1409 29.6903 54.7269 29.5253 55.2446 29.477C55.9642 29.4115 56.4563 29.585 56.7151 30.0003C56.974 30.4156 57.1048 31.1665 57.1048 32.2474V38.5308L60.2593 38.2407V31.8634C60.2593 29.9349 59.9521 28.5354 59.3406 27.665C58.729 26.7975 57.7022 26.4277 56.2572 26.5614C55.7224 26.6098 55.2247 26.7264 54.761 26.9113C54.2974 27.0962 53.7683 27.3863 53.1738 27.7874V27.1274L50.0449 27.4147V39.1822L53.1994 38.8921V30.0914V30.0885Z" fill="white"/>
<path d="M67.6723 37.8368C69.0689 37.7088 70.6533 37.3419 72.4254 36.7388L72.377 34.4121L71.7171 34.5429C71.3871 34.6055 70.8609 34.6851 70.1413 34.7819C69.4188 34.8814 68.7987 34.9525 68.2839 35.0009C67.624 35.0606 67.1119 35.0521 66.7422 34.9667C66.3724 34.8843 66.105 34.7051 65.9429 34.4291C65.7779 34.1532 65.6812 33.7436 65.6499 33.1975L72.5676 32.5603L72.8037 30.3502C72.8037 28.5781 72.377 27.2867 71.5208 26.4789C70.6647 25.6711 69.4074 25.344 67.7434 25.4976C65.94 25.6626 64.6088 26.3196 63.7555 27.4659C62.8993 28.6123 62.4727 30.2677 62.4727 32.4324C62.4727 34.597 62.8794 35.9623 63.6958 36.8156C64.5121 37.6661 65.8376 38.0075 67.6723 37.8368ZM66.1192 28.8142C66.4321 28.3989 66.9669 28.16 67.7207 28.0889C68.4574 28.0206 68.9722 28.1571 69.2623 28.5013C69.5525 28.8427 69.6976 29.4855 69.6976 30.427L65.6271 30.8025C65.6442 29.8923 65.8092 29.2295 66.1221 28.8171L66.1192 28.8142Z" fill="white"/>
<path d="M79.3231 36.7644C80.2646 36.6763 81.5674 36.3918 83.2314 35.9111L83.1375 33.4023L80.4069 33.8432C79.6701 33.9115 79.1098 33.8603 78.7229 33.6924C78.3389 33.5246 78.0716 33.2117 77.9236 32.7538C77.7729 32.2958 77.6989 31.6217 77.6989 30.7257C77.6989 29.8297 77.7729 29.1669 77.9236 28.6805C78.0716 28.197 78.3361 27.8386 78.7116 27.6082C79.087 27.3778 79.6388 27.2299 80.3585 27.1616C80.8762 27.1132 81.8035 27.0905 83.1347 27.0933L83.2285 24.5902C82.3012 24.4878 81.5645 24.4224 81.0156 24.3939C80.4666 24.3655 79.966 24.374 79.5109 24.4139C77.7388 24.5788 76.4588 25.179 75.6737 26.2144C74.8886 27.2498 74.4961 28.8597 74.4961 31.0414C74.4961 33.2231 74.8772 34.7193 75.6367 35.6323C76.3962 36.5426 77.625 36.9209 79.3203 36.7644H79.3231Z" fill="white"/>
<path d="M86.0272 31.6729C86.0272 32.8021 86.1381 33.6782 86.3571 34.304C86.5761 34.9269 86.9374 35.3564 87.4408 35.5925C87.9415 35.8286 88.6497 35.9054 89.56 35.8201C89.9212 35.7859 90.2768 35.7291 90.6295 35.6494C90.9822 35.5698 91.4714 35.4304 92.1001 35.2313L91.9578 32.7282L90.1687 32.9387C89.7278 32.9955 89.4547 32.8903 89.3438 32.6258C89.2357 32.3612 89.1788 31.9232 89.1788 31.3116V26.4874L92.0745 26.2201V23.5378L89.1788 23.8051V20.534L86.0243 20.8242V24.0953L84.6362 24.2233V26.9056L86.0243 26.7776V31.6729H86.0272Z" fill="white"/>
<path d="M98.7363 34.9724C100.133 34.8444 101.717 34.4775 103.489 33.8745L103.441 31.5477L102.781 31.6785C102.451 31.7411 101.925 31.8208 101.205 31.9175C100.483 32.017 99.8627 32.0881 99.3478 32.1365C98.6879 32.1962 98.1759 32.1877 97.8061 32.1024C97.4363 32.0199 97.169 31.8407 97.0068 31.5648C96.8419 31.2889 96.7452 30.8793 96.7139 30.3331L103.632 29.696L103.868 27.4858C103.868 25.7137 103.441 24.4224 102.585 23.6146C101.729 22.8067 100.471 22.4796 98.8074 22.6332C97.004 22.7982 95.6756 23.4553 94.8195 24.6016C93.9633 25.7479 93.5366 27.4033 93.5366 29.568C93.5366 31.7326 93.9434 33.0979 94.7597 33.9484C95.5761 34.7989 96.9016 35.1402 98.7363 34.9696V34.9724ZM97.1832 25.9498C97.4961 25.5374 98.0308 25.2956 98.7846 25.2245C99.5213 25.1562 100.036 25.2928 100.326 25.6369C100.616 25.9783 100.762 26.6211 100.762 27.5626L96.6911 27.9381C96.7082 27.0279 96.8732 26.3651 97.186 25.9527L97.1832 25.9498Z" fill="white"/>
<path d="M106.726 23.4211C105.95 24.5049 105.563 26.1461 105.563 28.342C105.563 30.3502 105.907 31.8208 106.598 32.7537C107.29 33.6867 108.419 34.0821 109.986 33.937C110.441 33.8944 110.896 33.7977 111.351 33.6469C111.807 33.4962 112.356 33.2402 112.998 32.8818V33.3767L116.127 33.0894V16.6172L112.973 16.9073V21.6604C111.781 21.5523 110.893 21.5239 110.313 21.5751C108.698 21.723 107.5 22.3402 106.724 23.424L106.726 23.4211ZM112.973 24.2944V30.4839L112.643 30.5863C111.92 30.8394 111.277 30.9959 110.714 31.0471C110.009 31.1125 109.505 30.9105 109.207 30.4441C108.908 29.9776 108.76 29.1555 108.76 27.9779C108.76 26.6922 108.925 25.7678 109.255 25.2018C109.585 24.6386 110.125 24.3228 110.879 24.2517C111.445 24.2005 112.142 24.2147 112.973 24.2944Z" fill="white"/>
<path d="M39.3872 43.2526L33.502 43.8272L27.6197 44.3989L21.7374 44.9706L15.8523 45.5452L13.5454 45.7585V48.6286L15.8523 48.4153L21.7374 47.8435L27.6197 47.2689L33.502 46.6972L39.3872 46.1255L45.2695 45.5509L51.1518 44.9792V42.1091L45.2695 42.6809L39.3872 43.2526Z" fill="white"/>
<path d="M109.986 36.3804L104.104 36.955L98.2213 37.5267L92.3362 38.0985L86.4539 38.6702L80.5687 39.2448L74.6864 39.8165L68.8041 40.3911L62.9189 40.9628L57.0366 41.5346L51.1543 42.1091V44.9792L57.0366 44.4075L62.9189 43.8329L68.8041 43.2611L74.6864 42.6894L80.5687 42.1148L86.4539 41.5431L92.3362 40.9685L98.2213 40.3968L104.104 39.8251L109.986 39.2505L115.868 38.6787L121.918 38.0899V15.8834L118.764 16.1906V35.5271L115.868 35.8087L109.986 36.3804Z" fill="white"/>
<path d="M127.46 15.2121L124.305 15.5193V38.033L127.46 37.7258V15.2121Z" fill="white"/>
<path d="M108.359 12.1031V16.3641C106.934 16.7196 105.677 17.3454 104.604 18.2329C102.923 17.2885 100.921 16.9131 98.6481 17.1235C97.772 17.1975 96.8903 17.371 96.0256 17.6441L94.3587 17.7948V14.5379L81.4165 15.7155V18.8615C80.7338 18.8302 80.0369 18.8473 79.3486 18.9099C77.0304 19.1175 75.0819 19.8542 73.5459 21.1029C71.8478 20.1557 69.851 19.7746 67.5754 19.9879C64.7736 20.2524 62.8679 21.2992 61.6504 22.3004C60.4615 21.5097 58.6524 20.8242 56.081 21.046C55.2248 21.1314 54.4312 21.2992 53.7116 21.5466L45.4314 22.3033C44.6748 22.1866 43.8954 22.1667 43.0791 22.2435C42.2314 22.3289 41.4293 22.4967 40.6926 22.7442L33.6526 23.8279C32.6314 23.6231 30.3075 23.4297 29.1498 23.5378C27.5 23.6771 25.9783 24.1266 24.6272 24.8775L23.1082 24.7154C22.0558 24.5931 21.2053 24.5134 20.5966 24.4963C19.7688 24.4537 19.0264 24.4622 18.395 24.5191C14.4327 24.8832 12.2396 26.7406 11.0904 28.2425C9.63978 30.1881 8.93435 32.7367 8.93435 36.0249C8.93435 37.8823 9.16191 39.4752 9.62555 40.8491L8.89453 40.923V54.2663L116.531 43.4318L127.454 42.4135L128.341 42.2314L132.113 41.9157V9.5687L108.359 12.1031ZM130.15 40.1294L127.269 40.3626L126.379 40.5447L116.338 41.4805L10.8515 52.0988V42.6951L12.5411 42.5244L11.9068 41.253C11.2241 39.8876 10.8913 38.1781 10.8913 36.0249C10.8913 33.1719 11.4688 31.0101 12.6492 29.4229C13.5537 28.2425 15.3144 26.769 18.5713 26.4704C19.1118 26.4192 19.7546 26.4135 20.5056 26.4533C21.0944 26.4732 21.8908 26.55 22.8864 26.6638L25.0567 26.8942L25.3383 26.7264C26.5045 26.0295 27.8414 25.6142 29.3205 25.4891C30.7029 25.3582 32.9614 25.5203 34.0935 25.9186L40.9884 24.6841L41.2216 24.6329C41.8417 24.4167 42.5329 24.2659 43.2611 24.1948C44.2737 24.1038 45.2067 24.192 46.1198 24.4707L54.0074 23.4894L54.252 23.4354C54.8494 23.2192 55.5292 23.0741 56.2602 23.0002C58.7178 22.7868 60.2254 23.5947 61.0645 24.3171L61.7528 24.9088L62.3957 24.2659C63.7297 22.9347 65.5331 22.1497 67.7546 21.942C69.851 21.7486 71.6515 22.1525 73.0965 23.131L73.7564 23.5776L74.3281 23.0229C75.611 21.7827 77.3575 21.0574 79.5221 20.864C80.1592 20.8042 80.8049 20.7929 81.3994 20.8242L82.1873 20.8839L83.3735 20.7417V17.5075L92.396 16.6855V19.9395L96.3072 19.5897L96.5233 19.547C97.28 19.3024 98.0508 19.1459 98.8188 19.0805C100.938 18.8871 102.733 19.2882 104.155 20.2666L104.821 20.7246L105.398 20.1586C106.482 19.0947 107.864 18.4121 109.505 18.1305L110.319 17.9911V13.9008L130.15 11.7248V40.1351V40.1294Z" fill="white"/>
</g>
<defs>
<filter id="filter0_d_1589_14311" x="5.4043" y="5.68887" width="134.199" height="56.4402" filterUnits="userSpaceOnUse" color-interpolation-filters="sRGB">
<feFlood flood-opacity="0" result="BackgroundImageFix"/>
<feColorMatrix in="SourceAlpha" type="matrix" values="0 0 0 0 0 0 0 0 0 0 0 0 0 0 0 0 0 0 127 0" result="hardAlpha"/>
<feOffset dx="2" dy="2"/>
<feGaussianBlur stdDeviation="1"/>
<feComposite in2="hardAlpha" operator="out"/>
<feColorMatrix type="matrix" values="0 0 0 0 0.00392157 0 0 0 0 0.00392157 0 0 0 0 0.00392157 0 0 0 0.75 0"/>
<feBlend mode="normal" in2="BackgroundImageFix" result="effect1_dropShadow_1589_14311"/>
<feBlend mode="normal" in="SourceGraphic" in2="effect1_dropShadow_1589_14311" result="shape"/>
</filter>
</defs>
</svg>
