<svg width="52" height="52" viewBox="0 0 52 52" fill="none" xmlns="http://www.w3.org/2000/svg">
<g filter="url(#filter0_d_2231_71363)">
<rect x="8" width="36" height="36" rx="18" fill="white" shape-rendering="crispEdges"/>
<path d="M26 16.7662C25.6583 16.7662 25.375 16.4829 25.375 16.1412V13.3662C25.375 13.0245 25.6583 12.7412 26 12.7412C26.3417 12.7412 26.625 13.0245 26.625 13.3662V16.1412C26.625 16.4912 26.3417 16.7662 26 16.7662Z" fill="#292D32"/>
<path d="M26.0148 24.9582C23.8648 24.9582 21.7231 24.6165 19.6814 23.9332C18.9231 23.6832 18.3481 23.1415 18.0981 22.4582C17.8481 21.7749 17.9314 20.9915 18.3398 20.3082L19.3981 18.5415C19.6314 18.1499 19.8398 17.4165 19.8398 16.9582V15.2082C19.8398 11.7999 22.6064 9.0332 26.0148 9.0332C29.4231 9.0332 32.1898 11.7999 32.1898 15.2082V16.9582C32.1898 17.4082 32.3981 18.1499 32.6314 18.5415L33.6898 20.3082C34.0814 20.9582 34.1481 21.7332 33.8898 22.4415C33.6314 23.1499 33.0648 23.6915 32.3481 23.9332C30.3064 24.6249 28.1648 24.9582 26.0148 24.9582ZM26.0148 10.2915C23.2981 10.2915 21.0898 12.4999 21.0898 15.2165V16.9665C21.0898 17.6415 20.8231 18.6165 20.4731 19.1915L19.4148 20.9665C19.1981 21.3249 19.1481 21.7082 19.2731 22.0415C19.3981 22.3749 19.6814 22.6249 20.0814 22.7582C23.9148 24.0332 28.1314 24.0332 31.9648 22.7582C32.3231 22.6415 32.5981 22.3749 32.7231 22.0249C32.8564 21.6749 32.8148 21.2915 32.6231 20.9665L31.5648 19.1999C31.2148 18.6249 30.9481 17.6499 30.9481 16.9749V15.2249C30.9398 12.4999 28.7314 10.2915 26.0148 10.2915Z" fill="#292D32"/>
<path d="M26.0016 27.0836C25.1099 27.0836 24.2349 26.7169 23.6016 26.0836C22.9682 25.4503 22.6016 24.5753 22.6016 23.6836H23.8516C23.8516 24.2503 24.0849 24.8003 24.4849 25.2003C24.8849 25.6003 25.4349 25.8336 26.0016 25.8336C27.1849 25.8336 28.1516 24.8669 28.1516 23.6836H29.4016C29.4016 25.5586 27.8766 27.0836 26.0016 27.0836Z" fill="#292D32"/>
</g>
<defs>
<filter id="filter0_d_2231_71363" x="0" y="0" width="52" height="52" filterUnits="userSpaceOnUse" color-interpolation-filters="sRGB">
<feFlood flood-opacity="0" result="BackgroundImageFix"/>
<feColorMatrix in="SourceAlpha" type="matrix" values="0 0 0 0 0 0 0 0 0 0 0 0 0 0 0 0 0 0 127 0" result="hardAlpha"/>
<feOffset dy="8"/>
<feGaussianBlur stdDeviation="4"/>
<feComposite in2="hardAlpha" operator="out"/>
<feColorMatrix type="matrix" values="0 0 0 0 0.639216 0 0 0 0 0.639216 0 0 0 0 0.945098 0 0 0 0.24 0"/>
<feBlend mode="normal" in2="BackgroundImageFix" result="effect1_dropShadow_2231_71363"/>
<feBlend mode="normal" in="SourceGraphic" in2="effect1_dropShadow_2231_71363" result="shape"/>
</filter>
</defs>
</svg>
