<svg width="24" height="24" viewBox="0 0 24 24" fill="none" xmlns="http://www.w3.org/2000/svg">
<path opacity="0.4" d="M20.3611 12.7301C19.9911 12.7301 19.6811 12.4501 19.6411 12.0801C19.4011 9.88007 18.2211 7.90007 16.4011 6.64007C16.0711 6.41007 15.9911 5.96007 16.2211 5.63007C16.4511 5.30007 16.9011 5.22007 17.2311 5.45007C19.4011 6.96007 20.8011 9.32007 21.0911 11.9301C21.1311 12.3301 20.8411 12.6901 20.4411 12.7301C20.4111 12.7301 20.3911 12.7301 20.3611 12.7301Z" fill="#1919DD"/>
<path opacity="0.4" d="M3.73931 12.7802C3.71931 12.7802 3.68931 12.7802 3.66931 12.7802C3.26931 12.7402 2.97931 12.3802 3.01931 11.9802C3.28931 9.3702 4.66931 7.0102 6.81931 5.4902C7.13931 5.2602 7.59931 5.3402 7.82931 5.6602C8.05931 5.9902 7.97931 6.4402 7.65931 6.6702C5.85931 7.9502 4.68931 9.9302 4.46931 12.1202C4.42931 12.5002 4.10931 12.7802 3.73931 12.7802Z" fill="#1919DD"/>
<path opacity="0.4" d="M15.9886 21.0998C14.7586 21.6898 13.4386 21.9898 12.0586 21.9898C10.6186 21.9898 9.24864 21.6698 7.96864 21.0198C7.60864 20.8498 7.46864 20.4098 7.64864 20.0498C7.81864 19.6898 8.25864 19.5498 8.61864 19.7198C9.24864 20.0398 9.91864 20.2598 10.5986 20.3898C11.5186 20.5698 12.4586 20.5798 13.3786 20.4198C14.0586 20.2998 14.7286 20.0898 15.3486 19.7898C15.7186 19.6198 16.1586 19.7598 16.3186 20.1298C16.4986 20.4898 16.3586 20.9298 15.9886 21.0998Z" fill="#1919DD"/>
<path d="M12.0505 2.00977C10.5005 2.00977 9.23047 3.26977 9.23047 4.82977C9.23047 6.38977 10.4905 7.64977 12.0505 7.64977C13.6105 7.64977 14.8705 6.38977 14.8705 4.82977C14.8705 3.26977 13.6105 2.00977 12.0505 2.00977Z" fill="#1919DD"/>
<path d="M5.05047 13.8701C3.50047 13.8701 2.23047 15.1301 2.23047 16.6901C2.23047 18.2501 3.49047 19.5101 5.05047 19.5101C6.61047 19.5101 7.87047 18.2501 7.87047 16.6901C7.87047 15.1301 6.60047 13.8701 5.05047 13.8701Z" fill="#1919DD"/>
<path d="M18.9489 13.8701C17.3989 13.8701 16.1289 15.1301 16.1289 16.6901C16.1289 18.2501 17.3889 19.5101 18.9489 19.5101C20.5089 19.5101 21.7689 18.2501 21.7689 16.6901C21.7689 15.1301 20.5089 13.8701 18.9489 13.8701Z" fill="#1919DD"/>
</svg>
