<svg width="41" height="41" viewBox="0 0 41 41" fill="none" xmlns="http://www.w3.org/2000/svg">
<path opacity="0.4" d="M37.33 12.6824V26.6476C37.33 32.7137 33.7137 36.33 27.6476 36.33H13.6824C7.6163 36.33 4 32.7137 4 26.6476V12.6824C4 11.8325 4.06666 11.0159 4.21665 10.2659C5.06656 5.68307 8.44956 3.01667 13.6157 3H27.7143C32.8804 3.01667 28.1501 6.41712 29 11C29.15 11.7499 37.33 11.8325 37.33 12.6824Z" fill="#9CA3AF"/>
<path d="M31 12.6824V12.7657H4V12.6824C4 11.8325 4.06666 11.0159 4.21665 10.2659H13.6157V3H16.1155V10.2659H25.2145V3H27.7143V10.2659H30.7834C30.9333 11.0159 31 11.8325 31 12.6824Z" fill="#9CA3AF"/>
<path d="M24.7304 20.8646L21.2641 18.8648C19.9809 18.1315 18.7477 18.0315 17.7811 18.5815C16.8145 19.1314 16.2812 20.2646 16.2812 21.7312V25.7308C16.2812 27.1973 16.8145 28.3305 17.7811 28.8804C18.1977 29.1138 18.6643 29.2304 19.1476 29.2304C19.8142 29.2304 20.5308 29.0138 21.2641 28.5971L24.7304 26.5973C26.0136 25.8641 26.7135 24.8309 26.7135 23.7143C26.7135 22.5977 25.9969 21.6145 24.7304 20.8646Z" fill="#9CA3AF"/>
<path d="M35.4513 1.81079H30.5513C28.4346 1.81079 27.168 3.07746 27.168 5.19412V10.0941C27.168 12.2108 28.4346 13.4775 30.5513 13.4775H35.4513C37.568 13.4775 38.8346 12.2108 38.8346 10.0941V5.19412C38.8346 3.07746 37.568 1.81079 35.4513 1.81079ZM35.818 7.32746C35.618 7.52746 35.3513 7.62746 35.0846 7.62746C34.818 7.62746 34.5513 7.52746 34.3513 7.32746L34.0513 7.02746V10.7608C34.0513 11.3441 33.5846 11.8108 33.0013 11.8108C32.418 11.8108 31.9513 11.3441 31.9513 10.7608V7.02746L31.6513 7.32746C31.2513 7.72746 30.5846 7.72746 30.1846 7.32746C29.7846 6.92746 29.7846 6.26079 30.1846 5.86079L32.268 3.77746C32.3513 3.69412 32.468 3.62746 32.5846 3.57746C32.618 3.56079 32.6513 3.56079 32.6846 3.54412C32.768 3.51079 32.8513 3.49412 32.9513 3.49412C32.9846 3.49412 33.018 3.49412 33.0513 3.49412C33.168 3.49412 33.268 3.51079 33.3846 3.56079C33.4013 3.56079 33.4013 3.56079 33.418 3.56079C33.5346 3.61079 33.6346 3.67746 33.718 3.76079C33.7346 3.77746 33.7346 3.77746 33.7513 3.77746L35.8346 5.86079C36.2346 6.26079 36.2346 6.92746 35.818 7.32746Z" fill="#1919DD"/>
</svg>
