<svg width="41" height="41" viewBox="0 0 41 41" fill="none" xmlns="http://www.w3.org/2000/svg">
<path d="M37.1656 23.5483V27.3649C37.1656 33.4316 33.549 37.0483 27.4823 37.0483H13.5156C9.26563 37.0483 6.19896 35.2649 4.76562 32.0983L4.94896 31.9649L13.149 26.4649C14.4823 25.5649 16.3656 25.6649 17.549 26.6983L18.1156 27.1649C19.4156 28.2816 21.5156 28.2816 22.8156 27.1649L29.749 21.2149C31.049 20.0983 33.149 20.0983 34.449 21.2149L37.1656 23.5483Z" fill="#9CA3AF"/>
<path opacity="0.4" d="M35.4487 13.7148H30.5487C28.432 13.7148 27.1654 12.4482 27.1654 10.3315V5.43151C27.1654 4.76484 27.2987 4.19818 27.532 3.71484C27.5154 3.71484 27.4987 3.71484 27.482 3.71484H13.5154C7.4487 3.71484 3.83203 7.33151 3.83203 13.3982V27.3648C3.83203 29.1815 4.1487 30.7648 4.76536 32.0982L4.9487 31.9648L13.1487 26.4648C14.482 25.5648 16.3654 25.6648 17.5487 26.6982L18.1154 27.1648C19.4154 28.2815 21.5154 28.2815 22.8154 27.1648L29.7487 21.2148C31.0487 20.0982 33.1487 20.0982 34.4487 21.2148L37.1654 23.5482V13.3982C37.1654 13.3815 37.1654 13.3648 37.1654 13.3482C36.682 13.5815 36.1154 13.7148 35.4487 13.7148Z" fill="#9CA3AF"/>
<path d="M15.5018 17.6816C17.6926 17.6816 19.4685 15.9057 19.4685 13.715C19.4685 11.5242 17.6926 9.74829 15.5018 9.74829C13.3111 9.74829 11.5352 11.5242 11.5352 13.715C11.5352 15.9057 13.3111 17.6816 15.5018 17.6816Z" fill="#9CA3AF"/>
<path d="M35.4513 2.04834H30.5513C28.4346 2.04834 27.168 3.31501 27.168 5.43167V10.3317C27.168 12.4483 28.4346 13.715 30.5513 13.715H35.4513C37.568 13.715 38.8346 12.4483 38.8346 10.3317V5.43167C38.8346 3.31501 37.568 2.04834 35.4513 2.04834ZM35.818 7.56501C35.618 7.76501 35.3513 7.86501 35.0846 7.86501C34.818 7.86501 34.5513 7.76501 34.3513 7.56501L34.0513 7.26501V10.9983C34.0513 11.5817 33.5846 12.0483 33.0013 12.0483C32.418 12.0483 31.9513 11.5817 31.9513 10.9983V7.26501L31.6513 7.56501C31.2513 7.96501 30.5846 7.96501 30.1846 7.56501C29.7846 7.16501 29.7846 6.49834 30.1846 6.09834L32.268 4.01501C32.3513 3.93167 32.468 3.86501 32.5846 3.81501C32.618 3.79834 32.6513 3.79834 32.6846 3.78167C32.768 3.74834 32.8513 3.73167 32.9513 3.73167C32.9846 3.73167 33.018 3.73167 33.0513 3.73167C33.168 3.73167 33.268 3.74834 33.3846 3.79834C33.4013 3.79834 33.4013 3.79834 33.418 3.79834C33.5346 3.84834 33.6346 3.91501 33.718 3.99834C33.7346 4.01501 33.7346 4.01501 33.7513 4.01501L35.8346 6.09834C36.2346 6.49834 36.2346 7.16501 35.818 7.56501Z" fill="#1919DD"/>
</svg>
