<svg width="16" height="16" viewBox="0 0 16 16" fill="none" xmlns="http://www.w3.org/2000/svg">
<path d="M12.948 7.83301H10.668C10.3946 7.83301 10.168 7.60634 10.168 7.33301V2.67301C10.168 2.17967 10.3613 1.71968 10.708 1.37301C11.0546 1.02634 11.5146 0.833008 12.008 0.833008H12.0146C12.848 0.839674 13.6346 1.16634 14.2346 1.75967C14.8346 2.36634 15.1613 3.16634 15.1613 3.99967V5.61301C15.168 6.93967 14.2746 7.83301 12.948 7.83301ZM11.168 6.83301H12.948C13.7213 6.83301 14.168 6.38634 14.168 5.61301V3.99967C14.168 3.42634 13.9413 2.87968 13.5346 2.46634C13.128 2.06634 12.5813 1.83967 12.0146 1.83301C12.0146 1.83301 12.0146 1.83301 12.008 1.83301C11.788 1.83301 11.5746 1.91967 11.4146 2.07967C11.2546 2.23967 11.168 2.44634 11.168 2.67301V6.83301Z" fill="white"/>
<path d="M5.99984 15.553C5.68651 15.553 5.39318 15.433 5.17318 15.2063L4.06651 14.093C4.00651 14.033 3.91318 14.0263 3.84651 14.0797L2.70651 14.933C2.35318 15.1997 1.88651 15.2463 1.48651 15.0463C1.08651 14.8463 0.839844 14.4463 0.839844 13.9997V3.99967C0.839844 1.98634 1.99318 0.833008 4.00651 0.833008H12.0065C12.2798 0.833008 12.5065 1.05967 12.5065 1.33301C12.5065 1.60634 12.2798 1.83301 12.0065 1.83301C11.5465 1.83301 11.1732 2.20634 11.1732 2.66634V13.9997C11.1732 14.4463 10.9265 14.8463 10.5265 15.0463C10.1265 15.2463 9.65984 15.2063 9.30651 14.9397L8.16651 14.0863C8.09984 14.033 8.00651 14.0463 7.95318 14.0997L6.83318 15.2197C6.60651 15.433 6.31318 15.553 5.99984 15.553ZM3.93984 13.0463C4.24651 13.0463 4.54651 13.1597 4.77318 13.393L5.87984 14.5063C5.91984 14.5463 5.97318 14.553 5.99984 14.553C6.02651 14.553 6.07984 14.5463 6.11984 14.5063L7.23984 13.3863C7.65318 12.973 8.30651 12.933 8.76651 13.2863L9.89984 14.133C9.97318 14.1863 10.0398 14.1663 10.0732 14.1463C10.1065 14.1263 10.1665 14.0863 10.1665 13.9997V2.66634C10.1665 2.36634 10.2398 2.07967 10.3665 1.83301H3.99984C2.51984 1.83301 1.83318 2.51967 1.83318 3.99967V13.9997C1.83318 14.093 1.89318 14.133 1.92651 14.153C1.96651 14.173 2.03318 14.1863 2.09985 14.133L3.23984 13.2797C3.44651 13.1263 3.69318 13.0463 3.93984 13.0463Z" fill="white"/>
<path d="M7.61979 9.38704C7.24646 9.38704 6.95312 9.08704 6.95312 8.72038C6.95312 8.35371 7.25312 8.05371 7.61979 8.05371C7.98646 8.05371 8.28646 8.35371 8.28646 8.72038C8.28646 9.08704 7.98646 9.38704 7.61979 9.38704Z" fill="white"/>
<path d="M4.38151 6.68685C4.00818 6.68685 3.71484 6.38685 3.71484 6.02018C3.71484 5.65352 4.01484 5.35352 4.38151 5.35352C4.74818 5.35352 5.04818 5.65352 5.04818 6.02018C5.04818 6.38685 4.74818 6.68685 4.38151 6.68685Z" fill="white"/>
<path d="M4.17802 9.65298C4.05135 9.65298 3.92469 9.60631 3.82469 9.50631C3.63135 9.31298 3.63135 8.99298 3.82469 8.79965L7.46469 5.15965C7.65802 4.96632 7.97802 4.96632 8.17135 5.15965C8.36469 5.35298 8.36469 5.67298 8.17135 5.86631L4.53135 9.50631C4.43802 9.59965 4.30469 9.65298 4.17802 9.65298Z" fill="white"/>
</svg>
