<svg width="76" height="75" viewBox="0 0 76 75" fill="none" xmlns="http://www.w3.org/2000/svg">
<g clip-path="url(#clip0_1686_15354)">
<rect width="76" height="75" rx="6" fill="#D1D1F8"/>
<path d="M0 8H45C47.2091 8 49 9.79086 49 12V22C49 24.2091 47.2091 26 45 26H0V8Z" fill="#1919DD"/>
<path d="M6.90375 20.12C6.50108 20.12 6.13842 20.0533 5.81575 19.92C5.49575 19.784 5.23042 19.592 5.01975 19.344C4.81175 19.096 4.67575 18.8013 4.61175 18.46L5.21175 18.36C5.30775 18.7333 5.51042 19.0267 5.81975 19.24C6.12908 19.4507 6.49842 19.556 6.92775 19.556C7.21042 19.556 7.46375 19.512 7.68775 19.424C7.91175 19.3333 8.08775 19.2053 8.21575 19.04C8.34375 18.8747 8.40775 18.6787 8.40775 18.452C8.40775 18.3027 8.38108 18.176 8.32775 18.072C8.27442 17.9653 8.20375 17.8773 8.11575 17.808C8.02775 17.7387 7.93175 17.6813 7.82775 17.636C7.72375 17.588 7.62242 17.5493 7.52375 17.52L6.06375 17.084C5.88775 17.0333 5.72508 16.9693 5.57575 16.892C5.42642 16.812 5.29575 16.7173 5.18375 16.608C5.07442 16.496 4.98908 16.3653 4.92775 16.216C4.86642 16.0667 4.83575 15.896 4.83575 15.704C4.83575 15.3787 4.92108 15.0973 5.09175 14.86C5.26242 14.6227 5.49575 14.44 5.79175 14.312C6.08775 14.184 6.42508 14.1213 6.80375 14.124C7.18775 14.124 7.53042 14.192 7.83175 14.328C8.13575 14.464 8.38642 14.6587 8.58375 14.912C8.78108 15.1627 8.91175 15.46 8.97575 15.804L8.35975 15.916C8.31975 15.6653 8.22775 15.448 8.08375 15.264C7.93975 15.08 7.75575 14.9387 7.53175 14.84C7.31042 14.7387 7.06642 14.6867 6.79975 14.684C6.54108 14.684 6.31042 14.728 6.10775 14.816C5.90775 14.9013 5.74908 15.0187 5.63175 15.168C5.51442 15.3173 5.45575 15.488 5.45575 15.68C5.45575 15.8747 5.50908 16.0307 5.61575 16.148C5.72508 16.2653 5.85842 16.3573 6.01575 16.424C6.17575 16.4907 6.33042 16.5453 6.47975 16.588L7.60775 16.92C7.72508 16.952 7.86242 16.9987 8.01975 17.06C8.17975 17.1187 8.33442 17.204 8.48375 17.316C8.63575 17.4253 8.76108 17.5693 8.85975 17.748C8.95842 17.9267 9.00775 18.1533 9.00775 18.428C9.00775 18.6947 8.95442 18.9333 8.84775 19.144C8.74375 19.3547 8.59575 19.532 8.40375 19.676C8.21442 19.82 7.99175 19.9293 7.73575 20.004C7.48242 20.0813 7.20508 20.12 6.90375 20.12ZM11.7734 20.12C11.3761 20.12 11.0401 20.02 10.7654 19.82C10.4908 19.6173 10.2828 19.344 10.1414 19C10.0001 18.6533 9.92944 18.2653 9.92944 17.836C9.92944 17.3987 10.0001 17.0093 10.1414 16.668C10.2854 16.324 10.4961 16.0533 10.7734 15.856C11.0508 15.6587 11.3921 15.56 11.7974 15.56C12.1921 15.56 12.5308 15.66 12.8134 15.86C13.0961 16.06 13.3121 16.332 13.4614 16.676C13.6134 17.02 13.6894 17.4067 13.6894 17.836C13.6894 18.268 13.6134 18.656 13.4614 19C13.3094 19.344 13.0908 19.6173 12.8054 19.82C12.5201 20.02 12.1761 20.12 11.7734 20.12ZM9.82944 21.92V15.68H10.3574V18.932H10.4214V21.92H9.82944ZM11.7134 19.572C12.0148 19.572 12.2654 19.496 12.4654 19.344C12.6654 19.192 12.8148 18.9853 12.9134 18.724C13.0148 18.46 13.0654 18.164 13.0654 17.836C13.0654 17.5107 13.0161 17.2173 12.9174 16.956C12.8188 16.6947 12.6681 16.488 12.4654 16.336C12.2654 16.184 12.0108 16.108 11.7014 16.108C11.4001 16.108 11.1494 16.1813 10.9494 16.328C10.7521 16.4747 10.6041 16.6787 10.5054 16.94C10.4068 17.1987 10.3574 17.4973 10.3574 17.836C10.3574 18.1693 10.4068 18.468 10.5054 18.732C10.6041 18.9933 10.7534 19.1987 10.9534 19.348C11.1534 19.4973 11.4068 19.572 11.7134 19.572ZM16.3718 20.12C15.9425 20.12 15.5758 20.0227 15.2718 19.828C14.9678 19.6333 14.7345 19.364 14.5718 19.02C14.4091 18.676 14.3278 18.2813 14.3278 17.836C14.3278 17.3827 14.4105 16.9853 14.5758 16.644C14.7411 16.3027 14.9758 16.0373 15.2798 15.848C15.5865 15.656 15.9505 15.56 16.3718 15.56C16.8038 15.56 17.1718 15.6573 17.4758 15.852C17.7825 16.044 18.0158 16.312 18.1758 16.656C18.3385 16.9973 18.4198 17.3907 18.4198 17.836C18.4198 18.2893 18.3385 18.688 18.1758 19.032C18.0131 19.3733 17.7785 19.64 17.4718 19.832C17.1651 20.024 16.7985 20.12 16.3718 20.12ZM16.3718 19.556C16.8518 19.556 17.2091 19.3973 17.4438 19.08C17.6785 18.76 17.7958 18.3453 17.7958 17.836C17.7958 17.3133 17.6771 16.8973 17.4398 16.588C17.2051 16.2787 16.8491 16.124 16.3718 16.124C16.0491 16.124 15.7825 16.1973 15.5718 16.344C15.3638 16.488 15.2078 16.6893 15.1038 16.948C15.0025 17.204 14.9518 17.5 14.9518 17.836C14.9518 18.356 15.0718 18.7733 15.3118 19.088C15.5518 19.4 15.9051 19.556 16.3718 19.556ZM22.4222 20V17.796C22.4222 17.556 22.3995 17.336 22.3542 17.136C22.3089 16.9333 22.2355 16.7573 22.1342 16.608C22.0355 16.456 21.9062 16.3387 21.7462 16.256C21.5889 16.1733 21.3969 16.132 21.1702 16.132C20.9622 16.132 20.7782 16.168 20.6182 16.24C20.4609 16.312 20.3275 16.416 20.2182 16.552C20.1115 16.6853 20.0302 16.848 19.9742 17.04C19.9182 17.232 19.8902 17.4507 19.8902 17.696L19.4742 17.604C19.4742 17.1613 19.5515 16.7893 19.7062 16.488C19.8609 16.1867 20.0742 15.9587 20.3462 15.804C20.6182 15.6493 20.9302 15.572 21.2822 15.572C21.5409 15.572 21.7662 15.612 21.9582 15.692C22.1529 15.772 22.3169 15.88 22.4502 16.016C22.5862 16.152 22.6955 16.308 22.7782 16.484C22.8609 16.6573 22.9209 16.8427 22.9582 17.04C22.9955 17.2347 23.0142 17.4293 23.0142 17.624V20H22.4222ZM19.2982 20V15.68H19.8302V16.744H19.8902V20H19.2982ZM25.6642 20.116C25.1575 20.116 24.7402 20.0067 24.4122 19.788C24.0869 19.5693 23.8869 19.2653 23.8122 18.876L24.4122 18.776C24.4762 19.0213 24.6215 19.2173 24.8482 19.364C25.0775 19.508 25.3602 19.58 25.6962 19.58C26.0242 19.58 26.2829 19.512 26.4722 19.376C26.6615 19.2373 26.7562 19.0493 26.7562 18.812C26.7562 18.6787 26.7255 18.5707 26.6642 18.488C26.6055 18.4027 26.4842 18.324 26.3002 18.252C26.1162 18.18 25.8415 18.0947 25.4762 17.996C25.0842 17.8893 24.7775 17.7827 24.5562 17.676C24.3349 17.5693 24.1775 17.4467 24.0842 17.308C23.9909 17.1667 23.9442 16.9947 23.9442 16.792C23.9442 16.5467 24.0135 16.332 24.1522 16.148C24.2909 15.9613 24.4829 15.8173 24.7282 15.716C24.9735 15.612 25.2589 15.56 25.5842 15.56C25.9095 15.56 26.2002 15.6133 26.4562 15.72C26.7149 15.824 26.9229 15.9707 27.0802 16.16C27.2375 16.3493 27.3309 16.5693 27.3602 16.82L26.7602 16.928C26.7202 16.6747 26.5935 16.4747 26.3802 16.328C26.1695 16.1787 25.9015 16.1013 25.5762 16.096C25.2695 16.088 25.0202 16.1467 24.8282 16.272C24.6362 16.3947 24.5402 16.5587 24.5402 16.764C24.5402 16.8787 24.5749 16.9773 24.6442 17.06C24.7135 17.14 24.8389 17.216 25.0202 17.288C25.2042 17.36 25.4655 17.4387 25.8042 17.524C26.2015 17.6253 26.5135 17.732 26.7402 17.844C26.9669 17.956 27.1282 18.088 27.2242 18.24C27.3202 18.392 27.3682 18.58 27.3682 18.804C27.3682 19.212 27.2162 19.5333 26.9122 19.768C26.6109 20 26.1949 20.116 25.6642 20.116ZM30.0593 20.12C29.63 20.12 29.2633 20.0227 28.9593 19.828C28.6553 19.6333 28.422 19.364 28.2593 19.02C28.0966 18.676 28.0153 18.2813 28.0153 17.836C28.0153 17.3827 28.098 16.9853 28.2633 16.644C28.4286 16.3027 28.6633 16.0373 28.9673 15.848C29.274 15.656 29.638 15.56 30.0593 15.56C30.4913 15.56 30.8593 15.6573 31.1633 15.852C31.47 16.044 31.7033 16.312 31.8633 16.656C32.026 16.9973 32.1073 17.3907 32.1073 17.836C32.1073 18.2893 32.026 18.688 31.8633 19.032C31.7006 19.3733 31.466 19.64 31.1593 19.832C30.8526 20.024 30.486 20.12 30.0593 20.12ZM30.0593 19.556C30.5393 19.556 30.8966 19.3973 31.1313 19.08C31.366 18.76 31.4833 18.3453 31.4833 17.836C31.4833 17.3133 31.3646 16.8973 31.1273 16.588C30.8926 16.2787 30.5366 16.124 30.0593 16.124C29.7366 16.124 29.47 16.1973 29.2593 16.344C29.0513 16.488 28.8953 16.6893 28.7913 16.948C28.69 17.204 28.6393 17.5 28.6393 17.836C28.6393 18.356 28.7593 18.7733 28.9993 19.088C29.2393 19.4 29.5926 19.556 30.0593 19.556ZM32.9897 20V15.68H33.5177V16.72L33.4137 16.584C33.4617 16.456 33.5244 16.3387 33.6017 16.232C33.679 16.1227 33.763 16.0333 33.8537 15.964C33.9657 15.8653 34.0964 15.7907 34.2457 15.74C34.395 15.6867 34.5457 15.656 34.6977 15.648C34.8497 15.6373 34.9884 15.648 35.1137 15.68V16.232C34.9564 16.192 34.7844 16.1827 34.5977 16.204C34.411 16.2253 34.239 16.3 34.0817 16.428C33.9377 16.54 33.8297 16.6747 33.7577 16.832C33.6857 16.9867 33.6377 17.152 33.6137 17.328C33.5897 17.5013 33.5777 17.6733 33.5777 17.844V20H32.9897ZM37.6224 20.12C37.201 20.12 36.8357 20.0267 36.5264 19.84C36.2197 19.6533 35.981 19.3907 35.8104 19.052C35.6397 18.7133 35.5544 18.316 35.5544 17.86C35.5544 17.388 35.6384 16.98 35.8064 16.636C35.9744 16.292 36.2104 16.0267 36.5144 15.84C36.821 15.6533 37.1824 15.56 37.5984 15.56C38.025 15.56 38.389 15.6587 38.6904 15.856C38.9917 16.0507 39.2197 16.3307 39.3744 16.696C39.529 17.0613 39.5997 17.4973 39.5864 18.004H38.9864V17.796C38.9757 17.236 38.8544 16.8133 38.6224 16.528C38.393 16.2427 38.057 16.1 37.6144 16.1C37.1504 16.1 36.7944 16.2507 36.5464 16.552C36.301 16.8533 36.1784 17.2827 36.1784 17.84C36.1784 18.384 36.301 18.8067 36.5464 19.108C36.7944 19.4067 37.145 19.556 37.5984 19.556C37.9077 19.556 38.177 19.4853 38.4064 19.344C38.6384 19.2 38.821 18.9933 38.9544 18.724L39.5024 18.936C39.3317 19.312 39.0797 19.604 38.7464 19.812C38.4157 20.0173 38.041 20.12 37.6224 20.12ZM35.9704 18.004V17.512H39.2704V18.004H35.9704ZM42.1501 20.12C41.7474 20.12 41.4034 20.02 41.1181 19.82C40.8327 19.6173 40.6141 19.344 40.4621 19C40.3101 18.656 40.2341 18.268 40.2341 17.836C40.2341 17.4067 40.3087 17.02 40.4581 16.676C40.6101 16.332 40.8274 16.06 41.1101 15.86C41.3927 15.66 41.7314 15.56 42.1261 15.56C42.5314 15.56 42.8727 15.6587 43.1501 15.856C43.4274 16.0533 43.6367 16.324 43.7781 16.668C43.9221 17.0093 43.9941 17.3987 43.9941 17.836C43.9941 18.2653 43.9234 18.6533 43.7821 19C43.6407 19.344 43.4327 19.6173 43.1581 19.82C42.8834 20.02 42.5474 20.12 42.1501 20.12ZM42.2101 19.572C42.5167 19.572 42.7701 19.4973 42.9701 19.348C43.1701 19.1987 43.3194 18.9933 43.4181 18.732C43.5167 18.468 43.5661 18.1693 43.5661 17.836C43.5661 17.4973 43.5167 17.1987 43.4181 16.94C43.3194 16.6787 43.1701 16.4747 42.9701 16.328C42.7727 16.1813 42.5234 16.108 42.2221 16.108C41.9127 16.108 41.6567 16.184 41.4541 16.336C41.2514 16.488 41.1007 16.6947 41.0021 16.956C40.9061 17.2173 40.8581 17.5107 40.8581 17.836C40.8581 18.164 40.9074 18.46 41.0061 18.724C41.1074 18.9853 41.2581 19.192 41.4581 19.344C41.6581 19.496 41.9087 19.572 42.2101 19.572ZM43.5661 20V16.748H43.5021V14.24H44.0941V20H43.5661Z" fill="white"/>
</g>
<rect x="0.5" y="0.5" width="75" height="74" rx="5.5" stroke="#1919DD"/>
<defs>
<clipPath id="clip0_1686_15354">
<rect width="76" height="75" rx="6" fill="white"/>
</clipPath>
</defs>
</svg>
