<svg width="343" height="88" viewBox="0 0 343 88" fill="none" xmlns="http://www.w3.org/2000/svg">
<mask id="path-1-inside-1_1686_9552" fill="white">
<path fill-rule="evenodd" clip-rule="evenodd" d="M0 0H343V24.9432C338.218 28.7471 335 35.8569 335 44C335 52.1431 338.218 59.2529 343 63.0568V88H0V63.0568C4.78241 59.2529 8 52.1431 8 44C8 35.8569 4.78241 28.7471 0 24.9432V0Z"/>
</mask>
<path fill-rule="evenodd" clip-rule="evenodd" d="M0 0H343V24.9432C338.218 28.7471 335 35.8569 335 44C335 52.1431 338.218 59.2529 343 63.0568V88H0V63.0568C4.78241 59.2529 8 52.1431 8 44C8 35.8569 4.78241 28.7471 0 24.9432V0Z" fill="#27AE60" fill-opacity="0.12"/>
<path d="M343 0H343.5V-0.5H343V0ZM0 0V-0.5H-0.5V0H0ZM343 24.9432L343.311 25.3345L343.5 25.1844V24.9432H343ZM343 63.0568H343.5V62.8156L343.311 62.6655L343 63.0568ZM343 88V88.5H343.5V88H343ZM0 88H-0.5V88.5H0V88ZM0 63.0568L-0.311247 62.6655L-0.5 62.8156V63.0568H0ZM0 24.9432H-0.5V25.1844L-0.311247 25.3345L0 24.9432ZM343 -0.5H341.006V0.5H343V-0.5ZM337.017 -0.5H333.029V0.5H337.017V-0.5ZM329.041 -0.5H325.052V0.5H329.041V-0.5ZM321.064 -0.5H317.076V0.5H321.064V-0.5ZM313.087 -0.5H309.099V0.5H313.087V-0.5ZM305.11 -0.5H301.122V0.5H305.11V-0.5ZM297.134 -0.5H293.145V0.5H297.134V-0.5ZM289.157 -0.5H285.169V0.5H289.157V-0.5ZM281.18 -0.5H277.192V0.5H281.18V-0.5ZM273.203 -0.5H269.215V0.5H273.203V-0.5ZM265.227 -0.5H261.238V0.5H265.227V-0.5ZM257.25 -0.5H253.262V0.5H257.25V-0.5ZM249.273 -0.5H245.285V0.5H249.273V-0.5ZM241.297 -0.5H237.308V0.5H241.297V-0.5ZM233.32 -0.5H229.331V0.5H233.32V-0.5ZM225.343 -0.5H221.355V0.5H225.343V-0.5ZM217.366 -0.5H213.378V0.5H217.366V-0.5ZM209.39 -0.5H205.401V0.5H209.39V-0.5ZM201.413 -0.5H197.424V0.5H201.413V-0.5ZM193.436 -0.5H189.448V0.5H193.436V-0.5ZM185.459 -0.5H181.471V0.5H185.459V-0.5ZM177.483 -0.5H173.494V0.5H177.483V-0.5ZM169.506 -0.5H165.517V0.5H169.506V-0.5ZM161.529 -0.5H157.541V0.5H161.529V-0.5ZM153.552 -0.5H149.564V0.5H153.552V-0.5ZM145.576 -0.5H141.587V0.5H145.576V-0.5ZM137.599 -0.5H133.61V0.5H137.599V-0.5ZM129.622 -0.5H125.634V0.5H129.622V-0.5ZM121.645 -0.5H117.657V0.5H121.645V-0.5ZM113.669 -0.5H109.68V0.5H113.669V-0.5ZM105.692 -0.5H101.703V0.5H105.692V-0.5ZM97.7151 -0.5H93.7267V0.5H97.7151V-0.5ZM89.7383 -0.5H85.75V0.5H89.7383V-0.5ZM81.7616 -0.5H77.7732V0.5H81.7616V-0.5ZM73.7849 -0.5H69.7965V0.5H73.7849V-0.5ZM65.8081 -0.5H61.8197V0.5H65.8081V-0.5ZM57.8314 -0.5H53.843V0.5H57.8314V-0.5ZM49.8546 -0.5H45.8662V0.5H49.8546V-0.5ZM41.8779 -0.5H37.8895V0.5H41.8779V-0.5ZM33.9011 -0.5H29.9127V0.5H33.9011V-0.5ZM25.9244 -0.5H21.936V0.5H25.9244V-0.5ZM17.9476 -0.5H13.9593V0.5H17.9476V-0.5ZM9.97089 -0.5H5.98252V0.5H9.97089V-0.5ZM1.99415 -0.5H0V0.5H1.99415V-0.5ZM-0.5 0V2.0786H0.5V0H-0.5ZM-0.5 6.2358V10.393H0.5V6.2358H-0.5ZM-0.5 14.5502V18.7074H0.5V14.5502H-0.5ZM-0.5 22.8646V24.9432H0.5V22.8646H-0.5ZM-0.311247 25.3345C0.131948 25.687 0.561958 26.0694 0.977278 26.4799L1.68025 25.7687C1.24033 25.3339 0.783531 24.9275 0.311247 24.5519L-0.311247 25.3345ZM3.19229 29.137C3.83237 30.0637 4.41404 31.0706 4.92834 32.1463L5.83053 31.715C5.29449 30.5938 4.68658 29.5409 4.01511 28.5687L3.19229 29.137ZM6.20419 35.3894C6.54739 36.4752 6.82782 37.6082 7.03892 38.7796L8.02307 38.6022C7.80453 37.3895 7.51394 36.2151 7.15769 35.088L6.20419 35.3894ZM7.44932 42.2506C7.48289 42.8275 7.5 43.411 7.5 44H8.5C8.5 43.3916 8.48233 42.7888 8.44763 42.1925L7.44932 42.2506ZM7.5 44C7.5 44.589 7.48289 45.1725 7.44932 45.7494L8.44763 45.8075C8.48233 45.2112 8.5 44.6084 8.5 44H7.5ZM7.03892 49.2204C6.82782 50.3918 6.54739 51.5248 6.20419 52.6106L7.15769 52.912C7.51394 51.7849 7.80453 50.6105 8.02307 49.3978L7.03892 49.2204ZM4.92833 55.8537C4.41404 56.9294 3.83237 57.9363 3.19229 58.863L4.01511 59.4313C4.68658 58.4591 5.29449 57.4062 5.83052 56.2851L4.92833 55.8537ZM0.977279 61.5201C0.561958 61.9306 0.131949 62.313 -0.311247 62.6655L0.311247 63.4481C0.783531 63.0725 1.24033 62.6661 1.68025 62.2313L0.977279 61.5201ZM-0.5 63.0568V65.1354H0.5V63.0568H-0.5ZM-0.5 69.2926V73.4498H0.5V69.2926H-0.5ZM-0.5 77.607V81.7642H0.5V77.607H-0.5ZM-0.5 85.9214V88H0.5V85.9214H-0.5ZM0 88.5H1.99419V87.5H0V88.5ZM5.98256 88.5H9.97093V87.5H5.98256V88.5ZM13.9593 88.5H17.9477V87.5H13.9593V88.5ZM21.936 88.5H25.9244V87.5H21.936V88.5ZM29.9128 88.5H33.9012V87.5H29.9128V88.5ZM37.8895 88.5H41.8779V87.5H37.8895V88.5ZM45.8663 88.5H49.8547V87.5H45.8663V88.5ZM53.843 88.5H57.8314V87.5H53.843V88.5ZM61.8198 88.5H65.8081V87.5H61.8198V88.5ZM69.7965 88.5H73.7849V87.5H69.7965V88.5ZM77.7733 88.5H81.7616V87.5H77.7733V88.5ZM85.75 88.5H89.7384V87.5H85.75V88.5ZM93.7268 88.5H97.7151V87.5H93.7268V88.5ZM101.703 88.5H105.692V87.5H101.703V88.5ZM109.68 88.5H113.669V87.5H109.68V88.5ZM117.657 88.5H121.645V87.5H117.657V88.5ZM125.634 88.5H129.622V87.5H125.634V88.5ZM133.61 88.5H137.599V87.5H133.61V88.5ZM141.587 88.5H145.576V87.5H141.587V88.5ZM149.564 88.5H153.552V87.5H149.564V88.5ZM157.541 88.5H161.529V87.5H157.541V88.5ZM165.517 88.5H169.506V87.5H165.517V88.5ZM173.494 88.5H177.483V87.5H173.494V88.5ZM181.471 88.5H185.459V87.5H181.471V88.5ZM189.448 88.5H193.436V87.5H189.448V88.5ZM197.424 88.5H201.413V87.5H197.424V88.5ZM205.401 88.5H209.39V87.5H205.401V88.5ZM213.378 88.5H217.366V87.5H213.378V88.5ZM221.355 88.5H225.343V87.5H221.355V88.5ZM229.331 88.5H233.32V87.5H229.331V88.5ZM237.308 88.5H241.297V87.5H237.308V88.5ZM245.285 88.5H249.273V87.5H245.285V88.5ZM253.262 88.5H257.25V87.5H253.262V88.5ZM261.238 88.5H265.227V87.5H261.238V88.5ZM269.215 88.5H273.204V87.5H269.215V88.5ZM277.192 88.5H281.18V87.5H277.192V88.5ZM285.169 88.5H289.157V87.5H285.169V88.5ZM293.145 88.5H297.134V87.5H293.145V88.5ZM301.122 88.5H305.111V87.5H301.122V88.5ZM309.099 88.5H313.087V87.5H309.099V88.5ZM317.076 88.5H321.064V87.5H317.076V88.5ZM325.052 88.5H329.041V87.5H325.052V88.5ZM333.029 88.5H337.017V87.5H333.029V88.5ZM341.006 88.5H343V87.5H341.006V88.5ZM343.5 88V85.9214H342.5V88H343.5ZM343.5 81.7642V77.607H342.5V81.7642H343.5ZM343.5 73.4498V69.2926H342.5V73.4498H343.5ZM343.5 65.1354V63.0568H342.5V65.1354H343.5ZM343.311 62.6655C342.868 62.313 342.438 61.9306 342.023 61.5201L341.32 62.2313C341.76 62.6661 342.216 63.0724 342.689 63.4481L343.311 62.6655ZM339.808 58.863C339.168 57.9363 338.586 56.9294 338.072 55.8537L337.169 56.285C337.706 57.4062 338.313 58.4591 338.985 59.4313L339.808 58.863ZM336.796 52.6106C336.453 51.5248 336.172 50.3918 335.961 49.2204L334.977 49.3978C335.195 50.6105 335.486 51.7849 335.842 52.912L336.796 52.6106ZM335.551 45.7494C335.517 45.1725 335.5 44.589 335.5 44H334.5C334.5 44.6084 334.518 45.2112 334.552 45.8075L335.551 45.7494ZM335.5 44C335.5 43.411 335.517 42.8275 335.551 42.2506L334.552 42.1925C334.518 42.7888 334.5 43.3916 334.5 44H335.5ZM335.961 38.7796C336.172 37.6082 336.453 36.4752 336.796 35.3894L335.842 35.088C335.486 36.2151 335.195 37.3895 334.977 38.6022L335.961 38.7796ZM338.072 32.1463C338.586 31.0706 339.168 30.0637 339.808 29.137L338.985 28.5687C338.313 29.5409 337.706 30.5938 337.169 31.715L338.072 32.1463ZM342.023 26.4799C342.438 26.0694 342.868 25.687 343.311 25.3345L342.689 24.5519C342.216 24.9275 341.76 25.3339 341.32 25.7687L342.023 26.4799ZM343.5 24.9432V22.8646H342.5V24.9432H343.5ZM343.5 18.7074V14.5502H342.5V18.7074H343.5ZM343.5 10.393V6.2358H342.5V10.393H343.5ZM343.5 2.0786V0H342.5V2.0786H343.5ZM343 0H344V-1H343V0ZM0 0V-1H-1V0H0ZM343 24.9432L343.622 25.7258L344 25.4256V24.9432H343ZM343 63.0568H344V62.5744L343.622 62.2742L343 63.0568ZM343 88V89H344V88H343ZM0 88H-1V89H0V88ZM0 63.0568L-0.622495 62.2742L-1 62.5744V63.0568H0ZM0 24.9432H-1V25.4256L-0.622495 25.7258L0 24.9432ZM343 -1H341.006V1H343V-1ZM337.017 -1H333.029V1H337.017V-1ZM329.041 -1H325.052V1H329.041V-1ZM321.064 -1H317.076V1H321.064V-1ZM313.087 -1H309.099V1H313.087V-1ZM305.11 -1H301.122V1H305.11V-1ZM297.134 -1H293.145V1H297.134V-1ZM289.157 -1H285.169V1H289.157V-1ZM281.18 -1H277.192V1H281.18V-1ZM273.203 -1H269.215V1H273.203V-1ZM265.227 -1H261.238V1H265.227V-1ZM257.25 -1H253.262V1H257.25V-1ZM249.273 -1H245.285V1H249.273V-1ZM241.297 -1H237.308V1H241.297V-1ZM233.32 -1H229.331V1H233.32V-1ZM225.343 -1H221.355V1H225.343V-1ZM217.366 -1H213.378V1H217.366V-1ZM209.39 -1H205.401V1H209.39V-1ZM201.413 -1H197.424V1H201.413V-1ZM193.436 -1H189.448V1H193.436V-1ZM185.459 -1H181.471V1H185.459V-1ZM177.483 -1H173.494V1H177.483V-1ZM169.506 -1H165.517V1H169.506V-1ZM161.529 -1H157.541V1H161.529V-1ZM153.552 -1H149.564V1H153.552V-1ZM145.576 -1H141.587V1H145.576V-1ZM137.599 -1H133.61V1H137.599V-1ZM129.622 -1H125.634V1H129.622V-1ZM121.645 -1H117.657V1H121.645V-1ZM113.669 -1H109.68V1H113.669V-1ZM105.692 -1H101.703V1H105.692V-1ZM97.7151 -1H93.7267V1H97.7151V-1ZM89.7383 -1H85.75V1H89.7383V-1ZM81.7616 -1H77.7732V1H81.7616V-1ZM73.7849 -1H69.7965V1H73.7849V-1ZM65.8081 -1H61.8197V1H65.8081V-1ZM57.8314 -1H53.843V1H57.8314V-1ZM49.8546 -1H45.8662V1H49.8546V-1ZM41.8779 -1H37.8895V1H41.8779V-1ZM33.9011 -1H29.9127V1H33.9011V-1ZM25.9244 -1H21.936V1H25.9244V-1ZM17.9476 -1H13.9593V1H17.9476V-1ZM9.97089 -1H5.98252V1H9.97089V-1ZM1.99415 -1H0V1H1.99415V-1ZM-1 0V2.0786H1V0H-1ZM-1 6.2358V10.393H1V6.2358H-1ZM-1 14.5502V18.7074H1V14.5502H-1ZM-1 22.8646V24.9432H1V22.8646H-1ZM-0.622495 25.7258C-0.193843 26.0668 0.222772 26.4372 0.625792 26.8355L2.03173 25.4131C1.57952 24.9661 1.10932 24.5478 0.622495 24.1606L-0.622495 25.7258ZM2.78088 29.4211C3.40527 30.3252 3.97382 31.309 4.47724 32.362L6.28162 31.4993C5.73471 30.3554 5.11369 29.2794 4.42652 28.2845L2.78088 29.4211ZM5.72744 35.5401C6.06412 36.6053 6.33947 37.7175 6.54685 38.8682L8.51514 38.5135C8.29288 37.2802 7.99721 36.0851 7.63444 34.9374L5.72744 35.5401ZM6.95016 42.2796C6.98317 42.8469 7 43.4207 7 44H9C9 43.3819 8.98204 42.7694 8.94679 42.1634L6.95016 42.2796ZM7 44C7 44.5793 6.98317 45.1531 6.95016 45.7204L8.94679 45.8366C8.98204 45.2306 9 44.6181 9 44H7ZM6.54685 49.1318C6.33947 50.2825 6.06412 51.3947 5.72744 52.4599L7.63444 53.0627C7.99721 51.9149 8.29288 50.7198 8.51514 49.4865L6.54685 49.1318ZM4.47724 55.638C3.97382 56.691 3.40527 57.6749 2.78088 58.5789L4.42652 59.7155C5.11369 58.7206 5.73471 57.6446 6.28162 56.5007L4.47724 55.638ZM0.625793 61.1645C0.222772 61.5628 -0.193842 61.9332 -0.622495 62.2742L0.622495 63.8394C1.10932 63.4522 1.57952 63.0339 2.03174 62.5869L0.625793 61.1645ZM-1 63.0568V65.1354H1V63.0568H-1ZM-1 69.2926V73.4498H1V69.2926H-1ZM-1 77.607V81.7642H1V77.607H-1ZM-1 85.9214V88H1V85.9214H-1ZM0 89H1.99419V87H0V89ZM5.98256 89H9.97093V87H5.98256V89ZM13.9593 89H17.9477V87H13.9593V89ZM21.936 89H25.9244V87H21.936V89ZM29.9128 89H33.9012V87H29.9128V89ZM37.8895 89H41.8779V87H37.8895V89ZM45.8663 89H49.8547V87H45.8663V89ZM53.843 89H57.8314V87H53.843V89ZM61.8198 89H65.8081V87H61.8198V89ZM69.7965 89H73.7849V87H69.7965V89ZM77.7733 89H81.7616V87H77.7733V89ZM85.75 89H89.7384V87H85.75V89ZM93.7268 89H97.7151V87H93.7268V89ZM101.703 89H105.692V87H101.703V89ZM109.68 89H113.669V87H109.68V89ZM117.657 89H121.645V87H117.657V89ZM125.634 89H129.622V87H125.634V89ZM133.61 89H137.599V87H133.61V89ZM141.587 89H145.576V87H141.587V89ZM149.564 89H153.552V87H149.564V89ZM157.541 89H161.529V87H157.541V89ZM165.517 89H169.506V87H165.517V89ZM173.494 89H177.483V87H173.494V89ZM181.471 89H185.459V87H181.471V89ZM189.448 89H193.436V87H189.448V89ZM197.424 89H201.413V87H197.424V89ZM205.401 89H209.39V87H205.401V89ZM213.378 89H217.366V87H213.378V89ZM221.355 89H225.343V87H221.355V89ZM229.331 89H233.32V87H229.331V89ZM237.308 89H241.297V87H237.308V89ZM245.285 89H249.273V87H245.285V89ZM253.262 89H257.25V87H253.262V89ZM261.238 89H265.227V87H261.238V89ZM269.215 89H273.204V87H269.215V89ZM277.192 89H281.18V87H277.192V89ZM285.169 89H289.157V87H285.169V89ZM293.145 89H297.134V87H293.145V89ZM301.122 89H305.111V87H301.122V89ZM309.099 89H313.087V87H309.099V89ZM317.076 89H321.064V87H317.076V89ZM325.052 89H329.041V87H325.052V89ZM333.029 89H337.017V87H333.029V89ZM341.006 89H343V87H341.006V89ZM344 88V85.9214H342V88H344ZM344 81.7642V77.607H342V81.7642H344ZM344 73.4498V69.2926H342V73.4498H344ZM344 65.1354V63.0568H342V65.1354H344ZM343.622 62.2742C343.194 61.9332 342.777 61.5628 342.374 61.1645L340.968 62.5869C341.42 63.0339 341.891 63.4522 342.378 63.8394L343.622 62.2742ZM340.219 58.5789C339.595 57.6748 339.026 56.691 338.523 55.638L336.718 56.5007C337.265 57.6446 337.886 58.7206 338.573 59.7155L340.219 58.5789ZM337.273 52.4599C336.936 51.3947 336.661 50.2825 336.453 49.1318L334.485 49.4865C334.707 50.7198 335.003 51.9149 335.366 53.0626L337.273 52.4599ZM336.05 45.7204C336.017 45.1531 336 44.5793 336 44H334C334 44.6181 334.018 45.2306 334.053 45.8366L336.05 45.7204ZM336 44C336 43.4207 336.017 42.8469 336.05 42.2796L334.053 42.1634C334.018 42.7694 334 43.3819 334 44H336ZM336.453 38.8682C336.661 37.7175 336.936 36.6053 337.273 35.5401L335.366 34.9374C335.003 36.0851 334.707 37.2802 334.485 38.5135L336.453 38.8682ZM338.523 32.362C339.026 31.309 339.595 30.3251 340.219 29.4211L338.573 28.2845C337.886 29.2794 337.265 30.3554 336.718 31.4993L338.523 32.362ZM342.374 26.8355C342.777 26.4372 343.194 26.0668 343.622 25.7258L342.378 24.1606C341.891 24.5478 341.42 24.9661 340.968 25.4131L342.374 26.8355ZM344 24.9432V22.8646H342V24.9432H344ZM344 18.7074V14.5502H342V18.7074H344ZM344 10.393V6.2358H342V10.393H344ZM344 2.0786V0H342V2.0786H344Z" fill="#27AE60" mask="url(#path-1-inside-1_1686_9552)"/>
</svg>
